<?xml version="1.0" encoding="UTF-8"?>
<svg id="Layer_1" data-name="Layer 1" xmlns="http://www.w3.org/2000/svg" viewBox="0 0 50 50">
  <defs>
    <style>
      .cls-1 {
        fill: #333132;
      }
    </style>
  </defs>
  <path class="cls-1" d="M25,0c-6.8,0-7.64.03-10.3.15-2.67.13-4.48.55-6.07,1.16-1.64.64-3.04,1.5-4.43,2.89-1.39,1.38-2.25,2.78-2.89,4.43-.62,1.59-1.03,3.4-1.16,6.07C.03,17.36,0,18.2,0,25s.03,7.64.15,10.3c.13,2.66.55,4.48,1.16,6.07.64,1.64,1.5,3.04,2.89,4.43,1.38,1.39,2.78,2.25,4.43,2.89,1.59.61,3.41,1.03,6.07,1.16,2.66.12,3.51.15,10.3.15s7.64-.03,10.3-.15c2.66-.13,4.48-.55,6.07-1.16,1.64-.64,3.04-1.5,4.43-2.89,1.39-1.38,2.25-2.78,2.89-4.43.61-1.59,1.03-3.41,1.16-6.07.12-2.66.15-3.51.15-10.3s-.03-7.64-.15-10.3c-.13-2.66-.55-4.49-1.16-6.07-.64-1.64-1.5-3.04-2.89-4.43-1.38-1.39-2.78-2.25-4.43-2.89-1.59-.62-3.41-1.03-6.07-1.16C32.64.03,31.8,0,25,0ZM25,4.5c6.67,0,7.47.03,10.11.15,2.43.11,3.76.52,4.64.86,1.17.45,1.99.99,2.88,1.87.87.87,1.41,1.7,1.86,2.87.34.88.75,2.2.86,4.64.11,2.64.15,3.44.15,10.11s-.03,7.47-.15,10.11c-.13,2.43-.54,3.76-.88,4.64-.47,1.17-1,1.99-1.87,2.88-.88.87-1.72,1.41-2.88,1.86-.87.34-2.21.75-4.66.86-2.65.11-3.43.15-10.12.15s-7.47-.03-10.13-.15c-2.43-.13-3.78-.54-4.66-.88-1.19-.47-2-1-2.87-1.87-.88-.88-1.44-1.72-1.87-2.88-.35-.87-.75-2.21-.88-4.66-.09-2.62-.13-3.43-.13-10.09s.04-7.47.13-10.12c.13-2.44.53-3.78.88-4.66.43-1.19.99-2,1.87-2.88.87-.87,1.69-1.43,2.87-1.87.88-.34,2.19-.75,4.63-.87,2.65-.1,3.43-.13,10.12-.13l.1.07ZM25,12.17c-7.1,0-12.83,5.75-12.83,12.83s5.75,12.83,12.83,12.83,12.83-5.75,12.83-12.83-5.75-12.83-12.83-12.83ZM25,33.34c-4.61,0-8.33-3.73-8.33-8.33s3.73-8.33,8.33-8.33,8.33,3.73,8.33,8.33-3.73,8.33-8.33,8.33ZM41.35,11.66c0,1.66-1.35,3-3.01,3s-3-1.34-3-3,1.35-3,3-3,3.01,1.34,3.01,3Z"/>
</svg>